<mxfile host="app.diagrams.net" modified="2021-10-17T17:35:02.764Z" agent="5.0 (Windows NT 10.0; Win64; x64) AppleWebKit/537.36 (KHTML, like Gecko) Chrome/94.0.4606.81 Safari/537.36" etag="K79jbOBglp6EW1Wd_0t1" version="15.5.4" type="github" pages="2">
  <diagram id="C5RBs43oDa-KdzZeNtuy" name="Centro de Enseñanza">
    <mxGraphModel dx="1185" dy="667" grid="1" gridSize="10" guides="1" tooltips="1" connect="1" arrows="1" fold="1" page="1" pageScale="1" pageWidth="827" pageHeight="1169" math="0" shadow="0">
      <root>
        <mxCell id="WIyWlLk6GJQsqaUBKTNV-0" />
        <mxCell id="WIyWlLk6GJQsqaUBKTNV-1" parent="WIyWlLk6GJQsqaUBKTNV-0" />
        <mxCell id="5lidbxMmfUBL6zPMsP68-26" style="edgeStyle=orthogonalEdgeStyle;rounded=0;orthogonalLoop=1;jettySize=auto;html=1;endArrow=none;endFill=0;" edge="1" parent="WIyWlLk6GJQsqaUBKTNV-1" source="5lidbxMmfUBL6zPMsP68-0" target="5lidbxMmfUBL6zPMsP68-3">
          <mxGeometry relative="1" as="geometry" />
        </mxCell>
        <mxCell id="5lidbxMmfUBL6zPMsP68-28" value="1" style="edgeLabel;html=1;align=center;verticalAlign=middle;resizable=0;points=[];" vertex="1" connectable="0" parent="5lidbxMmfUBL6zPMsP68-26">
          <mxGeometry x="-0.6771" relative="1" as="geometry">
            <mxPoint x="-11" as="offset" />
          </mxGeometry>
        </mxCell>
        <mxCell id="5lidbxMmfUBL6zPMsP68-0" value="Departamentos" style="rounded=0;whiteSpace=wrap;html=1;" vertex="1" parent="WIyWlLk6GJQsqaUBKTNV-1">
          <mxGeometry x="130" y="450" width="120" height="60" as="geometry" />
        </mxCell>
        <mxCell id="5lidbxMmfUBL6zPMsP68-19" style="edgeStyle=orthogonalEdgeStyle;rounded=0;orthogonalLoop=1;jettySize=auto;html=1;entryX=0.5;entryY=1;entryDx=0;entryDy=0;endArrow=none;endFill=0;" edge="1" parent="WIyWlLk6GJQsqaUBKTNV-1" source="5lidbxMmfUBL6zPMsP68-1" target="5lidbxMmfUBL6zPMsP68-0">
          <mxGeometry relative="1" as="geometry" />
        </mxCell>
        <mxCell id="5lidbxMmfUBL6zPMsP68-1" value="&lt;u&gt;Nombre&lt;/u&gt;" style="ellipse;whiteSpace=wrap;html=1;" vertex="1" parent="WIyWlLk6GJQsqaUBKTNV-1">
          <mxGeometry x="210" y="550" width="120" height="80" as="geometry" />
        </mxCell>
        <mxCell id="5lidbxMmfUBL6zPMsP68-22" style="edgeStyle=orthogonalEdgeStyle;rounded=0;orthogonalLoop=1;jettySize=auto;html=1;endArrow=none;endFill=0;" edge="1" parent="WIyWlLk6GJQsqaUBKTNV-1" source="5lidbxMmfUBL6zPMsP68-2" target="5lidbxMmfUBL6zPMsP68-12">
          <mxGeometry relative="1" as="geometry" />
        </mxCell>
        <mxCell id="5lidbxMmfUBL6zPMsP68-30" value="N" style="edgeLabel;html=1;align=center;verticalAlign=middle;resizable=0;points=[];" vertex="1" connectable="0" parent="5lidbxMmfUBL6zPMsP68-22">
          <mxGeometry x="-0.7012" relative="1" as="geometry">
            <mxPoint as="offset" />
          </mxGeometry>
        </mxCell>
        <mxCell id="5lidbxMmfUBL6zPMsP68-2" value="Materias" style="rounded=0;whiteSpace=wrap;html=1;" vertex="1" parent="WIyWlLk6GJQsqaUBKTNV-1">
          <mxGeometry x="540" y="450" width="120" height="60" as="geometry" />
        </mxCell>
        <mxCell id="5lidbxMmfUBL6zPMsP68-27" style="edgeStyle=orthogonalEdgeStyle;rounded=0;orthogonalLoop=1;jettySize=auto;html=1;entryX=0;entryY=0.5;entryDx=0;entryDy=0;endArrow=none;endFill=0;" edge="1" parent="WIyWlLk6GJQsqaUBKTNV-1" source="5lidbxMmfUBL6zPMsP68-3" target="5lidbxMmfUBL6zPMsP68-2">
          <mxGeometry relative="1" as="geometry" />
        </mxCell>
        <mxCell id="5lidbxMmfUBL6zPMsP68-29" value="1" style="edgeLabel;html=1;align=center;verticalAlign=middle;resizable=0;points=[];" vertex="1" connectable="0" parent="5lidbxMmfUBL6zPMsP68-27">
          <mxGeometry x="0.86" relative="1" as="geometry">
            <mxPoint as="offset" />
          </mxGeometry>
        </mxCell>
        <mxCell id="5lidbxMmfUBL6zPMsP68-3" value="Imparte" style="rhombus;whiteSpace=wrap;html=1;direction=south;" vertex="1" parent="WIyWlLk6GJQsqaUBKTNV-1">
          <mxGeometry x="360" y="440" width="80" height="80" as="geometry" />
        </mxCell>
        <mxCell id="5lidbxMmfUBL6zPMsP68-18" style="edgeStyle=orthogonalEdgeStyle;rounded=0;orthogonalLoop=1;jettySize=auto;html=1;endArrow=none;endFill=0;" edge="1" parent="WIyWlLk6GJQsqaUBKTNV-1" source="5lidbxMmfUBL6zPMsP68-4" target="5lidbxMmfUBL6zPMsP68-0">
          <mxGeometry relative="1" as="geometry" />
        </mxCell>
        <mxCell id="5lidbxMmfUBL6zPMsP68-4" value="&lt;u&gt;Código&lt;br&gt;&lt;/u&gt;" style="ellipse;whiteSpace=wrap;html=1;" vertex="1" parent="WIyWlLk6GJQsqaUBKTNV-1">
          <mxGeometry x="60" y="550" width="120" height="80" as="geometry" />
        </mxCell>
        <mxCell id="5lidbxMmfUBL6zPMsP68-9" style="edgeStyle=orthogonalEdgeStyle;rounded=0;orthogonalLoop=1;jettySize=auto;html=1;endArrow=none;endFill=0;" edge="1" parent="WIyWlLk6GJQsqaUBKTNV-1" source="5lidbxMmfUBL6zPMsP68-6" target="5lidbxMmfUBL6zPMsP68-2">
          <mxGeometry relative="1" as="geometry" />
        </mxCell>
        <mxCell id="5lidbxMmfUBL6zPMsP68-6" value="&lt;u&gt;Código&lt;br&gt;&lt;/u&gt;" style="ellipse;whiteSpace=wrap;html=1;" vertex="1" parent="WIyWlLk6GJQsqaUBKTNV-1">
          <mxGeometry x="460" y="550" width="120" height="80" as="geometry" />
        </mxCell>
        <mxCell id="5lidbxMmfUBL6zPMsP68-10" style="edgeStyle=orthogonalEdgeStyle;rounded=0;orthogonalLoop=1;jettySize=auto;html=1;endArrow=none;endFill=0;" edge="1" parent="WIyWlLk6GJQsqaUBKTNV-1" source="5lidbxMmfUBL6zPMsP68-7" target="5lidbxMmfUBL6zPMsP68-2">
          <mxGeometry relative="1" as="geometry" />
        </mxCell>
        <mxCell id="5lidbxMmfUBL6zPMsP68-7" value="Nombre" style="ellipse;whiteSpace=wrap;html=1;" vertex="1" parent="WIyWlLk6GJQsqaUBKTNV-1">
          <mxGeometry x="620" y="550" width="120" height="80" as="geometry" />
        </mxCell>
        <mxCell id="5lidbxMmfUBL6zPMsP68-11" value="Alumnos" style="rounded=0;whiteSpace=wrap;html=1;" vertex="1" parent="WIyWlLk6GJQsqaUBKTNV-1">
          <mxGeometry x="540" y="150" width="120" height="60" as="geometry" />
        </mxCell>
        <mxCell id="5lidbxMmfUBL6zPMsP68-23" style="edgeStyle=orthogonalEdgeStyle;rounded=0;orthogonalLoop=1;jettySize=auto;html=1;endArrow=none;endFill=0;" edge="1" parent="WIyWlLk6GJQsqaUBKTNV-1" source="5lidbxMmfUBL6zPMsP68-12" target="5lidbxMmfUBL6zPMsP68-11">
          <mxGeometry relative="1" as="geometry" />
        </mxCell>
        <mxCell id="5lidbxMmfUBL6zPMsP68-31" value="N" style="edgeLabel;html=1;align=center;verticalAlign=middle;resizable=0;points=[];" vertex="1" connectable="0" parent="5lidbxMmfUBL6zPMsP68-23">
          <mxGeometry x="0.8464" relative="1" as="geometry">
            <mxPoint as="offset" />
          </mxGeometry>
        </mxCell>
        <mxCell id="5lidbxMmfUBL6zPMsP68-12" value="Examina" style="rhombus;whiteSpace=wrap;html=1;" vertex="1" parent="WIyWlLk6GJQsqaUBKTNV-1">
          <mxGeometry x="560" y="290" width="80" height="80" as="geometry" />
        </mxCell>
        <mxCell id="5lidbxMmfUBL6zPMsP68-20" style="edgeStyle=orthogonalEdgeStyle;rounded=0;orthogonalLoop=1;jettySize=auto;html=1;entryX=0.5;entryY=0;entryDx=0;entryDy=0;endArrow=none;endFill=0;" edge="1" parent="WIyWlLk6GJQsqaUBKTNV-1" source="5lidbxMmfUBL6zPMsP68-13" target="5lidbxMmfUBL6zPMsP68-11">
          <mxGeometry relative="1" as="geometry" />
        </mxCell>
        <mxCell id="5lidbxMmfUBL6zPMsP68-13" value="&lt;u&gt;#Matrícula&lt;br&gt;&lt;/u&gt;" style="ellipse;whiteSpace=wrap;html=1;" vertex="1" parent="WIyWlLk6GJQsqaUBKTNV-1">
          <mxGeometry x="470" y="40" width="120" height="80" as="geometry" />
        </mxCell>
        <mxCell id="5lidbxMmfUBL6zPMsP68-21" style="edgeStyle=orthogonalEdgeStyle;rounded=0;orthogonalLoop=1;jettySize=auto;html=1;entryX=0.5;entryY=0;entryDx=0;entryDy=0;endArrow=none;endFill=0;" edge="1" parent="WIyWlLk6GJQsqaUBKTNV-1" source="5lidbxMmfUBL6zPMsP68-14" target="5lidbxMmfUBL6zPMsP68-11">
          <mxGeometry relative="1" as="geometry" />
        </mxCell>
        <mxCell id="5lidbxMmfUBL6zPMsP68-14" value="&lt;u&gt;#DNI&lt;br&gt;&lt;/u&gt;" style="ellipse;whiteSpace=wrap;html=1;" vertex="1" parent="WIyWlLk6GJQsqaUBKTNV-1">
          <mxGeometry x="610" y="40" width="120" height="80" as="geometry" />
        </mxCell>
        <mxCell id="5lidbxMmfUBL6zPMsP68-25" style="edgeStyle=orthogonalEdgeStyle;rounded=0;orthogonalLoop=1;jettySize=auto;html=1;endArrow=none;endFill=0;" edge="1" parent="WIyWlLk6GJQsqaUBKTNV-1" source="5lidbxMmfUBL6zPMsP68-16" target="5lidbxMmfUBL6zPMsP68-12">
          <mxGeometry relative="1" as="geometry" />
        </mxCell>
        <mxCell id="5lidbxMmfUBL6zPMsP68-16" value="&lt;u&gt;nota&lt;br&gt;&lt;/u&gt;" style="ellipse;whiteSpace=wrap;html=1;" vertex="1" parent="WIyWlLk6GJQsqaUBKTNV-1">
          <mxGeometry x="690" y="330" width="120" height="80" as="geometry" />
        </mxCell>
        <mxCell id="5lidbxMmfUBL6zPMsP68-24" style="edgeStyle=orthogonalEdgeStyle;rounded=0;orthogonalLoop=1;jettySize=auto;html=1;endArrow=none;endFill=0;" edge="1" parent="WIyWlLk6GJQsqaUBKTNV-1" source="5lidbxMmfUBL6zPMsP68-17" target="5lidbxMmfUBL6zPMsP68-12">
          <mxGeometry relative="1" as="geometry" />
        </mxCell>
        <mxCell id="5lidbxMmfUBL6zPMsP68-17" value="&lt;u&gt;fecha&lt;br&gt;&lt;/u&gt;" style="ellipse;whiteSpace=wrap;html=1;" vertex="1" parent="WIyWlLk6GJQsqaUBKTNV-1">
          <mxGeometry x="690" y="240" width="120" height="80" as="geometry" />
        </mxCell>
      </root>
    </mxGraphModel>
  </diagram>
  <diagram id="JIvurkrEXFPc1jWyRpNV" name="Page-2">
    <mxGraphModel dx="1422" dy="800" grid="1" gridSize="10" guides="1" tooltips="1" connect="1" arrows="1" fold="1" page="1" pageScale="1" pageWidth="827" pageHeight="1169" math="0" shadow="0">
      <root>
        <mxCell id="gY1nX8CE3dws-aOYuOgj-0" />
        <mxCell id="gY1nX8CE3dws-aOYuOgj-1" parent="gY1nX8CE3dws-aOYuOgj-0" />
        <mxCell id="gY1nX8CE3dws-aOYuOgj-2" value="EQUIPOS" style="rounded=0;whiteSpace=wrap;html=1;" vertex="1" parent="gY1nX8CE3dws-aOYuOgj-1">
          <mxGeometry x="300" y="320" width="120" height="60" as="geometry" />
        </mxCell>
        <mxCell id="gY1nX8CE3dws-aOYuOgj-3" value="ENTRENADORES" style="rounded=0;whiteSpace=wrap;html=1;" vertex="1" parent="gY1nX8CE3dws-aOYuOgj-1">
          <mxGeometry x="600" y="300" width="120" height="60" as="geometry" />
        </mxCell>
        <mxCell id="gY1nX8CE3dws-aOYuOgj-4" value="JUGADORES" style="rounded=0;whiteSpace=wrap;html=1;" vertex="1" parent="gY1nX8CE3dws-aOYuOgj-1">
          <mxGeometry x="60" y="310" width="120" height="60" as="geometry" />
        </mxCell>
        <mxCell id="gY1nX8CE3dws-aOYuOgj-5" value="Código" style="ellipse;whiteSpace=wrap;html=1;" vertex="1" parent="gY1nX8CE3dws-aOYuOgj-1">
          <mxGeometry x="20" y="450" width="120" height="80" as="geometry" />
        </mxCell>
        <mxCell id="gY1nX8CE3dws-aOYuOgj-6" value="Nombre" style="ellipse;whiteSpace=wrap;html=1;" vertex="1" parent="gY1nX8CE3dws-aOYuOgj-1">
          <mxGeometry x="160" y="450" width="120" height="80" as="geometry" />
        </mxCell>
      </root>
    </mxGraphModel>
  </diagram>
</mxfile>
